<?xml version="1.0" encoding="utf-8" standalone="no"?>
<!DOCTYPE svg PUBLIC "-//W3C//DTD SVG 1.1//EN"
  "http://www.w3.org/Graphics/SVG/1.1/DTD/svg11.dtd">
<svg xmlns:xlink="http://www.w3.org/1999/xlink" width="1144.8075pt" height="482.35125pt" viewBox="0 0 1144.8075 482.35125" xmlns="http://www.w3.org/2000/svg" version="1.1">
 <metadata>
  <rdf:RDF xmlns:dc="http://purl.org/dc/elements/1.1/" xmlns:cc="http://creativecommons.org/ns#" xmlns:rdf="http://www.w3.org/1999/02/22-rdf-syntax-ns#">
   <cc:Work>
    <dc:type rdf:resource="http://purl.org/dc/dcmitype/StillImage"/>
    <dc:date>2022-12-07T12:13:19.703408</dc:date>
    <dc:format>image/svg+xml</dc:format>
    <dc:creator>
     <cc:Agent>
      <dc:title>Matplotlib v3.5.3, https://matplotlib.org/</dc:title>
     </cc:Agent>
    </dc:creator>
   </cc:Work>
  </rdf:RDF>
 </metadata>
 <defs>
  <style type="text/css">*{stroke-linejoin: round; stroke-linecap: butt}</style>
 </defs>
 <g id="figure_1">
  <g id="patch_1">
   <path d="M 0 482.35125 
L 1144.8075 482.35125 
L 1144.8075 0 
L 0 0 
z
" style="fill: #ffffff"/>
  </g>
  <g id="axes_1">
   <g id="patch_2">
    <path d="M 33.2875 374.996875 
L 558.3225 374.996875 
L 558.3225 28.396875 
L 33.2875 28.396875 
z
" style="fill: #ffffff"/>
   </g>
   <g id="matplotlib.axis_1">
    <g id="xtick_1">
     <g id="line2d_1">
      <path d="M 57.152727 374.996875 
L 57.152727 28.396875 
" clip-path="url(#pc883fb734b)" style="fill: none; stroke: #b0b0b0; stroke-width: 0.8; stroke-linecap: square"/>
     </g>
     <g id="line2d_2">
      <defs>
       <path id="m2aae423e92" d="M 0 0 
L 0 3.5 
" style="stroke: #000000; stroke-width: 0.8"/>
      </defs>
      <g>
       <use xlink:href="#m2aae423e92" x="57.152727" y="374.996875" style="stroke: #000000; stroke-width: 0.8"/>
      </g>
     </g>
     <g id="text_1">
      <!-- 0 -->
      <g transform="translate(52.380852 393.394531)scale(0.15 -0.15)">
       <defs>
        <path id="DejaVuSans-30" d="M 2034 4250 
Q 1547 4250 1301 3770 
Q 1056 3291 1056 2328 
Q 1056 1369 1301 889 
Q 1547 409 2034 409 
Q 2525 409 2770 889 
Q 3016 1369 3016 2328 
Q 3016 3291 2770 3770 
Q 2525 4250 2034 4250 
z
M 2034 4750 
Q 2819 4750 3233 4129 
Q 3647 3509 3647 2328 
Q 3647 1150 3233 529 
Q 2819 -91 2034 -91 
Q 1250 -91 836 529 
Q 422 1150 422 2328 
Q 422 3509 836 4129 
Q 1250 4750 2034 4750 
z
" transform="scale(0.015625)"/>
       </defs>
       <use xlink:href="#DejaVuSans-30"/>
      </g>
     </g>
    </g>
    <g id="xtick_2">
     <g id="line2d_3">
      <path d="M 153.577888 374.996875 
L 153.577888 28.396875 
" clip-path="url(#pc883fb734b)" style="fill: none; stroke: #b0b0b0; stroke-width: 0.8; stroke-linecap: square"/>
     </g>
     <g id="line2d_4">
      <g>
       <use xlink:href="#m2aae423e92" x="153.577888" y="374.996875" style="stroke: #000000; stroke-width: 0.8"/>
      </g>
     </g>
     <g id="text_2">
      <!-- 20 -->
      <g transform="translate(144.034138 393.394531)scale(0.15 -0.15)">
       <defs>
        <path id="DejaVuSans-32" d="M 1228 531 
L 3431 531 
L 3431 0 
L 469 0 
L 469 531 
Q 828 903 1448 1529 
Q 2069 2156 2228 2338 
Q 2531 2678 2651 2914 
Q 2772 3150 2772 3378 
Q 2772 3750 2511 3984 
Q 2250 4219 1831 4219 
Q 1534 4219 1204 4116 
Q 875 4013 500 3803 
L 500 4441 
Q 881 4594 1212 4672 
Q 1544 4750 1819 4750 
Q 2544 4750 2975 4387 
Q 3406 4025 3406 3419 
Q 3406 3131 3298 2873 
Q 3191 2616 2906 2266 
Q 2828 2175 2409 1742 
Q 1991 1309 1228 531 
z
" transform="scale(0.015625)"/>
       </defs>
       <use xlink:href="#DejaVuSans-32"/>
       <use xlink:href="#DejaVuSans-30" x="63.623047"/>
      </g>
     </g>
    </g>
    <g id="xtick_3">
     <g id="line2d_5">
      <path d="M 250.003049 374.996875 
L 250.003049 28.396875 
" clip-path="url(#pc883fb734b)" style="fill: none; stroke: #b0b0b0; stroke-width: 0.8; stroke-linecap: square"/>
     </g>
     <g id="line2d_6">
      <g>
       <use xlink:href="#m2aae423e92" x="250.003049" y="374.996875" style="stroke: #000000; stroke-width: 0.8"/>
      </g>
     </g>
     <g id="text_3">
      <!-- 40 -->
      <g transform="translate(240.459299 393.394531)scale(0.15 -0.15)">
       <defs>
        <path id="DejaVuSans-34" d="M 2419 4116 
L 825 1625 
L 2419 1625 
L 2419 4116 
z
M 2253 4666 
L 3047 4666 
L 3047 1625 
L 3713 1625 
L 3713 1100 
L 3047 1100 
L 3047 0 
L 2419 0 
L 2419 1100 
L 313 1100 
L 313 1709 
L 2253 4666 
z
" transform="scale(0.015625)"/>
       </defs>
       <use xlink:href="#DejaVuSans-34"/>
       <use xlink:href="#DejaVuSans-30" x="63.623047"/>
      </g>
     </g>
    </g>
    <g id="xtick_4">
     <g id="line2d_7">
      <path d="M 346.428209 374.996875 
L 346.428209 28.396875 
" clip-path="url(#pc883fb734b)" style="fill: none; stroke: #b0b0b0; stroke-width: 0.8; stroke-linecap: square"/>
     </g>
     <g id="line2d_8">
      <g>
       <use xlink:href="#m2aae423e92" x="346.428209" y="374.996875" style="stroke: #000000; stroke-width: 0.8"/>
      </g>
     </g>
     <g id="text_4">
      <!-- 60 -->
      <g transform="translate(336.884459 393.394531)scale(0.15 -0.15)">
       <defs>
        <path id="DejaVuSans-36" d="M 2113 2584 
Q 1688 2584 1439 2293 
Q 1191 2003 1191 1497 
Q 1191 994 1439 701 
Q 1688 409 2113 409 
Q 2538 409 2786 701 
Q 3034 994 3034 1497 
Q 3034 2003 2786 2293 
Q 2538 2584 2113 2584 
z
M 3366 4563 
L 3366 3988 
Q 3128 4100 2886 4159 
Q 2644 4219 2406 4219 
Q 1781 4219 1451 3797 
Q 1122 3375 1075 2522 
Q 1259 2794 1537 2939 
Q 1816 3084 2150 3084 
Q 2853 3084 3261 2657 
Q 3669 2231 3669 1497 
Q 3669 778 3244 343 
Q 2819 -91 2113 -91 
Q 1303 -91 875 529 
Q 447 1150 447 2328 
Q 447 3434 972 4092 
Q 1497 4750 2381 4750 
Q 2619 4750 2861 4703 
Q 3103 4656 3366 4563 
z
" transform="scale(0.015625)"/>
       </defs>
       <use xlink:href="#DejaVuSans-36"/>
       <use xlink:href="#DejaVuSans-30" x="63.623047"/>
      </g>
     </g>
    </g>
    <g id="xtick_5">
     <g id="line2d_9">
      <path d="M 442.85337 374.996875 
L 442.85337 28.396875 
" clip-path="url(#pc883fb734b)" style="fill: none; stroke: #b0b0b0; stroke-width: 0.8; stroke-linecap: square"/>
     </g>
     <g id="line2d_10">
      <g>
       <use xlink:href="#m2aae423e92" x="442.85337" y="374.996875" style="stroke: #000000; stroke-width: 0.8"/>
      </g>
     </g>
     <g id="text_5">
      <!-- 80 -->
      <g transform="translate(433.30962 393.394531)scale(0.15 -0.15)">
       <defs>
        <path id="DejaVuSans-38" d="M 2034 2216 
Q 1584 2216 1326 1975 
Q 1069 1734 1069 1313 
Q 1069 891 1326 650 
Q 1584 409 2034 409 
Q 2484 409 2743 651 
Q 3003 894 3003 1313 
Q 3003 1734 2745 1975 
Q 2488 2216 2034 2216 
z
M 1403 2484 
Q 997 2584 770 2862 
Q 544 3141 544 3541 
Q 544 4100 942 4425 
Q 1341 4750 2034 4750 
Q 2731 4750 3128 4425 
Q 3525 4100 3525 3541 
Q 3525 3141 3298 2862 
Q 3072 2584 2669 2484 
Q 3125 2378 3379 2068 
Q 3634 1759 3634 1313 
Q 3634 634 3220 271 
Q 2806 -91 2034 -91 
Q 1263 -91 848 271 
Q 434 634 434 1313 
Q 434 1759 690 2068 
Q 947 2378 1403 2484 
z
M 1172 3481 
Q 1172 3119 1398 2916 
Q 1625 2713 2034 2713 
Q 2441 2713 2670 2916 
Q 2900 3119 2900 3481 
Q 2900 3844 2670 4047 
Q 2441 4250 2034 4250 
Q 1625 4250 1398 4047 
Q 1172 3844 1172 3481 
z
" transform="scale(0.015625)"/>
       </defs>
       <use xlink:href="#DejaVuSans-38"/>
       <use xlink:href="#DejaVuSans-30" x="63.623047"/>
      </g>
     </g>
    </g>
    <g id="xtick_6">
     <g id="line2d_11">
      <path d="M 539.278531 374.996875 
L 539.278531 28.396875 
" clip-path="url(#pc883fb734b)" style="fill: none; stroke: #b0b0b0; stroke-width: 0.8; stroke-linecap: square"/>
     </g>
     <g id="line2d_12">
      <g>
       <use xlink:href="#m2aae423e92" x="539.278531" y="374.996875" style="stroke: #000000; stroke-width: 0.8"/>
      </g>
     </g>
     <g id="text_6">
      <!-- 100 -->
      <g transform="translate(524.962906 393.394531)scale(0.15 -0.15)">
       <defs>
        <path id="DejaVuSans-31" d="M 794 531 
L 1825 531 
L 1825 4091 
L 703 3866 
L 703 4441 
L 1819 4666 
L 2450 4666 
L 2450 531 
L 3481 531 
L 3481 0 
L 794 0 
L 794 531 
z
" transform="scale(0.015625)"/>
       </defs>
       <use xlink:href="#DejaVuSans-31"/>
       <use xlink:href="#DejaVuSans-30" x="63.623047"/>
       <use xlink:href="#DejaVuSans-30" x="127.246094"/>
      </g>
     </g>
    </g>
    <g id="text_7">
     <!-- Epochs -->
     <g transform="translate(265.348437 413.431406)scale(0.17 -0.17)">
      <defs>
       <path id="DejaVuSans-45" d="M 628 4666 
L 3578 4666 
L 3578 4134 
L 1259 4134 
L 1259 2753 
L 3481 2753 
L 3481 2222 
L 1259 2222 
L 1259 531 
L 3634 531 
L 3634 0 
L 628 0 
L 628 4666 
z
" transform="scale(0.015625)"/>
       <path id="DejaVuSans-70" d="M 1159 525 
L 1159 -1331 
L 581 -1331 
L 581 3500 
L 1159 3500 
L 1159 2969 
Q 1341 3281 1617 3432 
Q 1894 3584 2278 3584 
Q 2916 3584 3314 3078 
Q 3713 2572 3713 1747 
Q 3713 922 3314 415 
Q 2916 -91 2278 -91 
Q 1894 -91 1617 61 
Q 1341 213 1159 525 
z
M 3116 1747 
Q 3116 2381 2855 2742 
Q 2594 3103 2138 3103 
Q 1681 3103 1420 2742 
Q 1159 2381 1159 1747 
Q 1159 1113 1420 752 
Q 1681 391 2138 391 
Q 2594 391 2855 752 
Q 3116 1113 3116 1747 
z
" transform="scale(0.015625)"/>
       <path id="DejaVuSans-6f" d="M 1959 3097 
Q 1497 3097 1228 2736 
Q 959 2375 959 1747 
Q 959 1119 1226 758 
Q 1494 397 1959 397 
Q 2419 397 2687 759 
Q 2956 1122 2956 1747 
Q 2956 2369 2687 2733 
Q 2419 3097 1959 3097 
z
M 1959 3584 
Q 2709 3584 3137 3096 
Q 3566 2609 3566 1747 
Q 3566 888 3137 398 
Q 2709 -91 1959 -91 
Q 1206 -91 779 398 
Q 353 888 353 1747 
Q 353 2609 779 3096 
Q 1206 3584 1959 3584 
z
" transform="scale(0.015625)"/>
       <path id="DejaVuSans-63" d="M 3122 3366 
L 3122 2828 
Q 2878 2963 2633 3030 
Q 2388 3097 2138 3097 
Q 1578 3097 1268 2742 
Q 959 2388 959 1747 
Q 959 1106 1268 751 
Q 1578 397 2138 397 
Q 2388 397 2633 464 
Q 2878 531 3122 666 
L 3122 134 
Q 2881 22 2623 -34 
Q 2366 -91 2075 -91 
Q 1284 -91 818 406 
Q 353 903 353 1747 
Q 353 2603 823 3093 
Q 1294 3584 2113 3584 
Q 2378 3584 2631 3529 
Q 2884 3475 3122 3366 
z
" transform="scale(0.015625)"/>
       <path id="DejaVuSans-68" d="M 3513 2113 
L 3513 0 
L 2938 0 
L 2938 2094 
Q 2938 2591 2744 2837 
Q 2550 3084 2163 3084 
Q 1697 3084 1428 2787 
Q 1159 2491 1159 1978 
L 1159 0 
L 581 0 
L 581 4863 
L 1159 4863 
L 1159 2956 
Q 1366 3272 1645 3428 
Q 1925 3584 2291 3584 
Q 2894 3584 3203 3211 
Q 3513 2838 3513 2113 
z
" transform="scale(0.015625)"/>
       <path id="DejaVuSans-73" d="M 2834 3397 
L 2834 2853 
Q 2591 2978 2328 3040 
Q 2066 3103 1784 3103 
Q 1356 3103 1142 2972 
Q 928 2841 928 2578 
Q 928 2378 1081 2264 
Q 1234 2150 1697 2047 
L 1894 2003 
Q 2506 1872 2764 1633 
Q 3022 1394 3022 966 
Q 3022 478 2636 193 
Q 2250 -91 1575 -91 
Q 1294 -91 989 -36 
Q 684 19 347 128 
L 347 722 
Q 666 556 975 473 
Q 1284 391 1588 391 
Q 1994 391 2212 530 
Q 2431 669 2431 922 
Q 2431 1156 2273 1281 
Q 2116 1406 1581 1522 
L 1381 1569 
Q 847 1681 609 1914 
Q 372 2147 372 2553 
Q 372 3047 722 3315 
Q 1072 3584 1716 3584 
Q 2034 3584 2315 3537 
Q 2597 3491 2834 3397 
z
" transform="scale(0.015625)"/>
      </defs>
      <use xlink:href="#DejaVuSans-45"/>
      <use xlink:href="#DejaVuSans-70" x="63.183594"/>
      <use xlink:href="#DejaVuSans-6f" x="126.660156"/>
      <use xlink:href="#DejaVuSans-63" x="187.841797"/>
      <use xlink:href="#DejaVuSans-68" x="242.822266"/>
      <use xlink:href="#DejaVuSans-73" x="306.201172"/>
     </g>
    </g>
   </g>
   <g id="matplotlib.axis_2">
    <g id="ytick_1">
     <g id="line2d_13">
      <path d="M 33.2875 356.521153 
L 558.3225 356.521153 
" clip-path="url(#pc883fb734b)" style="fill: none; stroke: #b0b0b0; stroke-width: 0.8; stroke-linecap: square"/>
     </g>
     <g id="line2d_14">
      <defs>
       <path id="m90889e13ea" d="M 0 0 
L -3.5 0 
" style="stroke: #000000; stroke-width: 0.8"/>
      </defs>
      <g>
       <use xlink:href="#m90889e13ea" x="33.2875" y="356.521153" style="stroke: #000000; stroke-width: 0.8"/>
      </g>
     </g>
     <g id="text_8">
      <!-- 6 -->
      <g transform="translate(16.74375 362.219982)scale(0.15 -0.15)">
       <use xlink:href="#DejaVuSans-36"/>
      </g>
     </g>
    </g>
    <g id="ytick_2">
     <g id="line2d_15">
      <path d="M 33.2875 315.051971 
L 558.3225 315.051971 
" clip-path="url(#pc883fb734b)" style="fill: none; stroke: #b0b0b0; stroke-width: 0.8; stroke-linecap: square"/>
     </g>
     <g id="line2d_16">
      <g>
       <use xlink:href="#m90889e13ea" x="33.2875" y="315.051971" style="stroke: #000000; stroke-width: 0.8"/>
      </g>
     </g>
     <g id="text_9">
      <!-- 8 -->
      <g transform="translate(16.74375 320.7508)scale(0.15 -0.15)">
       <use xlink:href="#DejaVuSans-38"/>
      </g>
     </g>
    </g>
    <g id="ytick_3">
     <g id="line2d_17">
      <path d="M 33.2875 273.582789 
L 558.3225 273.582789 
" clip-path="url(#pc883fb734b)" style="fill: none; stroke: #b0b0b0; stroke-width: 0.8; stroke-linecap: square"/>
     </g>
     <g id="line2d_18">
      <g>
       <use xlink:href="#m90889e13ea" x="33.2875" y="273.582789" style="stroke: #000000; stroke-width: 0.8"/>
      </g>
     </g>
     <g id="text_10">
      <!-- 10 -->
      <g transform="translate(7.2 279.281618)scale(0.15 -0.15)">
       <use xlink:href="#DejaVuSans-31"/>
       <use xlink:href="#DejaVuSans-30" x="63.623047"/>
      </g>
     </g>
    </g>
    <g id="ytick_4">
     <g id="line2d_19">
      <path d="M 33.2875 232.113607 
L 558.3225 232.113607 
" clip-path="url(#pc883fb734b)" style="fill: none; stroke: #b0b0b0; stroke-width: 0.8; stroke-linecap: square"/>
     </g>
     <g id="line2d_20">
      <g>
       <use xlink:href="#m90889e13ea" x="33.2875" y="232.113607" style="stroke: #000000; stroke-width: 0.8"/>
      </g>
     </g>
     <g id="text_11">
      <!-- 12 -->
      <g transform="translate(7.2 237.812436)scale(0.15 -0.15)">
       <use xlink:href="#DejaVuSans-31"/>
       <use xlink:href="#DejaVuSans-32" x="63.623047"/>
      </g>
     </g>
    </g>
    <g id="ytick_5">
     <g id="line2d_21">
      <path d="M 33.2875 190.644425 
L 558.3225 190.644425 
" clip-path="url(#pc883fb734b)" style="fill: none; stroke: #b0b0b0; stroke-width: 0.8; stroke-linecap: square"/>
     </g>
     <g id="line2d_22">
      <g>
       <use xlink:href="#m90889e13ea" x="33.2875" y="190.644425" style="stroke: #000000; stroke-width: 0.8"/>
      </g>
     </g>
     <g id="text_12">
      <!-- 14 -->
      <g transform="translate(7.2 196.343254)scale(0.15 -0.15)">
       <use xlink:href="#DejaVuSans-31"/>
       <use xlink:href="#DejaVuSans-34" x="63.623047"/>
      </g>
     </g>
    </g>
    <g id="ytick_6">
     <g id="line2d_23">
      <path d="M 33.2875 149.175243 
L 558.3225 149.175243 
" clip-path="url(#pc883fb734b)" style="fill: none; stroke: #b0b0b0; stroke-width: 0.8; stroke-linecap: square"/>
     </g>
     <g id="line2d_24">
      <g>
       <use xlink:href="#m90889e13ea" x="33.2875" y="149.175243" style="stroke: #000000; stroke-width: 0.8"/>
      </g>
     </g>
     <g id="text_13">
      <!-- 16 -->
      <g transform="translate(7.2 154.874071)scale(0.15 -0.15)">
       <use xlink:href="#DejaVuSans-31"/>
       <use xlink:href="#DejaVuSans-36" x="63.623047"/>
      </g>
     </g>
    </g>
    <g id="ytick_7">
     <g id="line2d_25">
      <path d="M 33.2875 107.706061 
L 558.3225 107.706061 
" clip-path="url(#pc883fb734b)" style="fill: none; stroke: #b0b0b0; stroke-width: 0.8; stroke-linecap: square"/>
     </g>
     <g id="line2d_26">
      <g>
       <use xlink:href="#m90889e13ea" x="33.2875" y="107.706061" style="stroke: #000000; stroke-width: 0.8"/>
      </g>
     </g>
     <g id="text_14">
      <!-- 18 -->
      <g transform="translate(7.2 113.404889)scale(0.15 -0.15)">
       <use xlink:href="#DejaVuSans-31"/>
       <use xlink:href="#DejaVuSans-38" x="63.623047"/>
      </g>
     </g>
    </g>
    <g id="ytick_8">
     <g id="line2d_27">
      <path d="M 33.2875 66.236879 
L 558.3225 66.236879 
" clip-path="url(#pc883fb734b)" style="fill: none; stroke: #b0b0b0; stroke-width: 0.8; stroke-linecap: square"/>
     </g>
     <g id="line2d_28">
      <g>
       <use xlink:href="#m90889e13ea" x="33.2875" y="66.236879" style="stroke: #000000; stroke-width: 0.8"/>
      </g>
     </g>
     <g id="text_15">
      <!-- 20 -->
      <g transform="translate(7.2 71.935707)scale(0.15 -0.15)">
       <use xlink:href="#DejaVuSans-32"/>
       <use xlink:href="#DejaVuSans-30" x="63.623047"/>
      </g>
     </g>
    </g>
   </g>
   <g id="line2d_29">
    <path d="M 57.152727 94.983224 
L 61.973985 142.875736 
L 66.795243 143.187953 
L 71.616501 155.48889 
L 76.437759 140.38254 
L 81.259017 139.512837 
L 86.080275 176.14751 
L 90.901534 183.112195 
L 95.722792 200.544827 
L 100.54405 213.026449 
L 105.365308 217.496677 
L 110.186566 222.709275 
L 115.007824 229.918213 
L 119.829082 233.458734 
L 124.65034 236.376399 
L 129.471598 235.645676 
L 134.292856 238.574171 
L 139.114114 241.827216 
L 143.935372 240.765355 
L 148.75663 241.233056 
L 153.577888 242.163064 
L 158.399146 242.305111 
L 163.220404 244.766444 
L 168.041662 243.117003 
L 172.86292 243.914944 
L 177.684178 245.480949 
L 182.505436 244.543434 
L 187.326694 244.797725 
L 192.147952 246.987921 
L 196.96921 283.577874 
L 201.790468 278.068548 
L 206.611726 277.964626 
L 211.432984 276.617207 
L 216.254242 276.298615 
L 221.0755 277.808054 
L 225.896758 276.203721 
L 230.718017 275.534572 
L 235.539275 273.83496 
L 240.360533 276.106965 
L 245.181791 274.816185 
L 250.003049 275.693455 
L 254.824307 274.474355 
L 259.645565 275.699004 
L 264.466823 275.152065 
L 269.288081 274.4892 
L 274.109339 274.54734 
L 278.930597 275.613907 
L 283.751855 277.032977 
L 288.573113 277.088452 
L 293.394371 237.301857 
L 298.215629 236.160862 
L 303.036887 235.685326 
L 307.858145 237.540965 
L 312.679403 237.403049 
L 317.500661 240.722231 
L 322.321919 239.23114 
L 327.143177 241.676288 
L 331.964435 239.27471 
L 336.785693 240.82273 
L 341.606951 242.705847 
L 346.428209 238.879169 
L 351.249467 239.357267 
L 356.070725 239.494051 
L 360.891983 242.34757 
L 365.713242 240.835356 
L 370.5345 241.2853 
L 375.355758 241.540385 
L 380.177016 241.636434 
L 384.998274 241.371518 
L 389.819532 240.942478 
L 394.64079 241.397867 
L 399.462048 242.644354 
L 404.283306 239.818296 
L 409.104564 243.060968 
L 413.925822 242.140116 
L 418.74708 243.056439 
L 423.568338 244.454663 
L 428.389596 243.466306 
L 433.210854 245.185671 
L 438.032112 243.061152 
L 442.85337 242.57209 
L 447.674628 242.603647 
L 452.495886 243.785266 
L 457.317144 245.162037 
L 462.138402 245.632246 
L 466.95966 243.963038 
L 471.780918 243.076929 
L 476.602176 243.555566 
L 481.423434 244.572163 
L 486.244692 244.830168 
L 491.06595 241.737836 
L 495.887208 244.348858 
L 500.708466 242.313704 
L 505.529725 241.866261 
L 510.350983 242.343551 
L 515.172241 243.40042 
L 519.993499 242.906311 
L 524.814757 243.503896 
L 529.636015 242.950912 
L 534.457273 241.621328 
" clip-path="url(#pc883fb734b)" style="fill: none; stroke: #0000ff; stroke-width: 1.5; stroke-linecap: square"/>
   </g>
   <g id="line2d_30">
    <path d="M 196.96921 374.996875 
L 196.96921 28.396875 
" clip-path="url(#pc883fb734b)" style="fill: none; stroke-dasharray: 1.5,2.475; stroke-dashoffset: 0; stroke: #000000; stroke-width: 1.5"/>
   </g>
   <g id="line2d_31">
    <path d="M 293.394371 374.996875 
L 293.394371 28.396875 
" clip-path="url(#pc883fb734b)" style="fill: none; stroke-dasharray: 5.55,2.4; stroke-dashoffset: 0; stroke: #000000; stroke-width: 1.5"/>
   </g>
   <g id="line2d_32">
    <path d="M 57.152727 44.15142 
L 61.973985 116.866181 
L 66.795243 219.419192 
L 71.616501 251.038922 
L 76.437759 256.183819 
L 81.259017 265.737636 
L 86.080275 267.65089 
L 90.901534 273.945994 
L 95.722792 278.096274 
L 100.54405 281.300031 
L 105.365308 279.847851 
L 110.186566 282.96409 
L 115.007824 283.998232 
L 119.829082 284.490689 
L 124.65034 284.266828 
L 129.471598 285.548646 
L 134.292856 285.90451 
L 139.114114 285.834227 
L 143.935372 286.536841 
L 148.75663 287.276058 
L 153.577888 286.953829 
L 158.399146 284.152745 
L 163.220404 285.067938 
L 168.041662 284.59069 
L 172.86292 283.156722 
L 177.684178 283.220821 
L 182.505436 284.521064 
L 187.326694 284.075624 
L 192.147952 283.992583 
L 196.96921 301.515273 
L 201.790468 300.486091 
L 206.611726 299.885554 
L 211.432984 298.856872 
L 216.254242 299.277348 
L 221.0755 298.452385 
L 225.896758 298.092643 
L 230.718017 299.069448 
L 235.539275 300.22598 
L 240.360533 298.948224 
L 245.181791 298.510411 
L 250.003049 298.6041 
L 254.824307 300.157044 
L 259.645565 298.345204 
L 264.466823 299.461211 
L 269.288081 298.020433 
L 274.109339 300.454744 
L 278.930597 301.212286 
L 283.751855 298.269023 
L 288.573113 300.458518 
L 293.394371 261.562597 
L 298.215629 263.956057 
L 303.036887 266.112596 
L 307.858145 265.858212 
L 312.679403 265.476668 
L 317.500661 266.549557 
L 322.321919 264.316528 
L 327.143177 265.736088 
L 331.964435 266.086358 
L 336.785693 266.601828 
L 341.606951 265.629711 
L 346.428209 266.275752 
L 351.249467 266.423826 
L 356.070725 265.411835 
L 360.891983 266.343235 
L 365.713242 264.208971 
L 370.5345 267.411925 
L 375.355758 266.695696 
L 380.177016 265.496355 
L 384.998274 267.794106 
L 389.819532 268.245597 
L 394.64079 265.840357 
L 399.462048 266.905213 
L 404.283306 266.978214 
L 409.104564 268.420886 
L 413.925822 268.66315 
L 418.74708 267.760429 
L 423.568338 269.13618 
L 428.389596 268.423112 
L 433.210854 268.882822 
L 438.032112 269.049792 
L 442.85337 270.295912 
L 447.674628 269.349737 
L 452.495886 269.920935 
L 457.317144 269.492686 
L 462.138402 268.103917 
L 466.95966 267.993819 
L 471.780918 271.982472 
L 476.602176 270.435563 
L 481.423434 270.904533 
L 486.244692 271.584761 
L 491.06595 270.877435 
L 495.887208 270.321416 
L 500.708466 270.91895 
L 505.529725 269.443558 
L 510.350983 270.35318 
L 515.172241 270.587668 
L 519.993499 272.268422 
L 524.814757 271.02018 
L 529.636015 270.023848 
L 534.457273 271.03618 
" clip-path="url(#pc883fb734b)" style="fill: none; stroke: #ff0000; stroke-width: 1.5; stroke-linecap: square"/>
   </g>
   <g id="line2d_33">
    <path d="M 196.96921 374.996875 
L 196.96921 28.396875 
" clip-path="url(#pc883fb734b)" style="fill: none; stroke-dasharray: 1.5,2.475; stroke-dashoffset: 0; stroke: #000000; stroke-width: 1.5"/>
   </g>
   <g id="line2d_34">
    <path d="M 293.394371 374.996875 
L 293.394371 28.396875 
" clip-path="url(#pc883fb734b)" style="fill: none; stroke-dasharray: 5.55,2.4; stroke-dashoffset: 0; stroke: #000000; stroke-width: 1.5"/>
   </g>
   <g id="line2d_35">
    <path d="M 57.152727 160.671398 
L 61.973985 174.959485 
L 66.795243 154.536753 
L 71.616501 175.078427 
L 76.437759 153.375642 
L 81.259017 188.581805 
L 86.080275 191.53606 
L 90.901534 227.492673 
L 95.722792 240.141815 
L 100.54405 271.241566 
L 105.365308 270.314864 
L 110.186566 256.695442 
L 115.007824 284.069733 
L 119.829082 283.334698 
L 124.65034 296.148286 
L 129.471598 292.119877 
L 134.292856 309.779248 
L 139.114114 289.504678 
L 143.935372 310.336262 
L 148.75663 294.635963 
L 153.577888 292.257161 
L 158.399146 315.874619 
L 163.220404 293.933523 
L 168.041662 292.150808 
L 172.86292 300.287596 
L 177.684178 295.084657 
L 182.505436 290.391675 
L 187.326694 292.75308 
L 192.147952 292.949379 
L 196.96921 329.331799 
L 201.790468 323.859785 
L 206.611726 332.827928 
L 211.432984 327.421478 
L 216.254242 323.569012 
L 221.0755 319.99265 
L 225.896758 322.258628 
L 230.718017 324.873792 
L 235.539275 331.256322 
L 240.360533 321.381471 
L 245.181791 325.763844 
L 250.003049 328.109222 
L 254.824307 330.109983 
L 259.645565 326.570941 
L 264.466823 332.733884 
L 269.288081 338.457014 
L 274.109339 319.515215 
L 278.930597 332.133522 
L 283.751855 329.308073 
L 288.573113 324.661355 
L 293.394371 284.528078 
L 298.215629 284.089266 
L 303.036887 287.21782 
L 307.858145 283.13958 
L 312.679403 288.875629 
L 317.500661 282.333621 
L 322.321919 286.307751 
L 327.143177 293.695871 
L 331.964435 292.464935 
L 336.785693 291.023766 
L 341.606951 283.415762 
L 346.428209 287.770924 
L 351.249467 287.71532 
L 356.070725 283.504828 
L 360.891983 298.656061 
L 365.713242 296.238658 
L 370.5345 297.531546 
L 375.355758 293.83799 
L 380.177016 297.439754 
L 384.998274 288.974933 
L 389.819532 285.625874 
L 394.64079 290.090765 
L 399.462048 301.134205 
L 404.283306 291.233528 
L 409.104564 291.710278 
L 413.925822 287.690463 
L 418.74708 297.506379 
L 423.568338 297.471727 
L 428.389596 293.032704 
L 433.210854 294.287667 
L 438.032112 308.082432 
L 442.85337 296.640161 
L 447.674628 288.533956 
L 452.495886 292.110363 
L 457.317144 286.690852 
L 462.138402 290.230189 
L 466.95966 282.322969 
L 471.780918 292.200014 
L 476.602176 294.900518 
L 481.423434 290.779378 
L 486.244692 289.634313 
L 491.06595 295.986154 
L 495.887208 283.48841 
L 500.708466 291.99871 
L 505.529725 286.921744 
L 510.350983 303.943407 
L 515.172241 294.771544 
L 519.993499 298.774305 
L 524.814757 298.07806 
L 529.636015 290.457415 
L 534.457273 304.462331 
" clip-path="url(#pc883fb734b)" style="fill: none; stroke-dasharray: 5.55,2.4; stroke-dashoffset: 0; stroke: #0000ff; stroke-width: 1.5"/>
   </g>
   <g id="line2d_36">
    <path d="M 196.96921 374.996875 
L 196.96921 28.396875 
" clip-path="url(#pc883fb734b)" style="fill: none; stroke-dasharray: 1.5,2.475; stroke-dashoffset: 0; stroke: #000000; stroke-width: 1.5"/>
   </g>
   <g id="line2d_37">
    <path d="M 293.394371 374.996875 
L 293.394371 28.396875 
" clip-path="url(#pc883fb734b)" style="fill: none; stroke-dasharray: 5.55,2.4; stroke-dashoffset: 0; stroke: #000000; stroke-width: 1.5"/>
   </g>
   <g id="line2d_38">
    <path d="M 57.152727 98.60983 
L 61.973985 183.821259 
L 66.795243 267.673971 
L 71.616501 278.817235 
L 76.437759 273.336807 
L 81.259017 287.650633 
L 86.080275 300.642983 
L 90.901534 310.934288 
L 95.722792 307.820104 
L 100.54405 319.569049 
L 105.365308 319.299505 
L 110.186566 324.686941 
L 115.007824 330.234098 
L 119.829082 316.067584 
L 124.65034 326.008104 
L 129.471598 324.04026 
L 134.292856 334.808135 
L 139.114114 340.878751 
L 143.935372 329.587922 
L 148.75663 333.446838 
L 153.577888 334.413842 
L 158.399146 334.536088 
L 163.220404 340.846146 
L 168.041662 329.879092 
L 172.86292 330.145449 
L 177.684178 332.676399 
L 182.505436 347.238209 
L 187.326694 332.412002 
L 192.147952 326.854245 
L 196.96921 347.25143 
L 201.790468 345.708424 
L 206.611726 350.754372 
L 211.432984 344.072965 
L 216.254242 354.216018 
L 221.0755 345.571703 
L 225.896758 357.220705 
L 230.718017 348.50708 
L 235.539275 351.43667 
L 240.360533 342.125274 
L 245.181791 355.44589 
L 250.003049 353.936936 
L 254.824307 351.705761 
L 259.645565 355.791635 
L 264.466823 356.952145 
L 269.288081 342.735007 
L 274.109339 359.24233 
L 278.930597 350.180503 
L 283.751855 336.930424 
L 288.573113 349.851495 
L 293.394371 326.432538 
L 298.215629 322.02785 
L 303.036887 319.386555 
L 307.858145 319.60382 
L 312.679403 318.878923 
L 317.500661 325.005047 
L 322.321919 321.726882 
L 327.143177 325.054274 
L 331.964435 322.746799 
L 336.785693 319.722311 
L 341.606951 312.197849 
L 346.428209 311.07262 
L 351.249467 311.334236 
L 356.070725 326.261378 
L 360.891983 312.455544 
L 365.713242 321.595061 
L 370.5345 314.683968 
L 375.355758 324.561451 
L 380.177016 326.358508 
L 384.998274 321.654136 
L 389.819532 324.357001 
L 394.64079 319.902426 
L 399.462048 319.981408 
L 404.283306 314.06349 
L 409.104564 326.967304 
L 413.925822 312.286308 
L 418.74708 324.543061 
L 423.568338 320.439588 
L 428.389596 316.383739 
L 433.210854 329.380778 
L 438.032112 329.402029 
L 442.85337 331.206505 
L 447.674628 321.405562 
L 452.495886 317.767719 
L 457.317144 320.890576 
L 462.138402 332.596763 
L 466.95966 319.507712 
L 471.780918 322.620831 
L 476.602176 320.819913 
L 481.423434 327.094975 
L 486.244692 326.120815 
L 491.06595 328.391134 
L 495.887208 327.617773 
L 500.708466 328.285031 
L 505.529725 326.476322 
L 510.350983 324.176597 
L 515.172241 325.948811 
L 519.993499 318.841819 
L 524.814757 323.340305 
L 529.636015 321.633919 
L 534.457273 326.122406 
" clip-path="url(#pc883fb734b)" style="fill: none; stroke-dasharray: 5.55,2.4; stroke-dashoffset: 0; stroke: #ff0000; stroke-width: 1.5"/>
   </g>
   <g id="line2d_39">
    <path d="M 196.96921 374.996875 
L 196.96921 28.396875 
" clip-path="url(#pc883fb734b)" style="fill: none; stroke-dasharray: 1.5,2.475; stroke-dashoffset: 0; stroke: #000000; stroke-width: 1.5"/>
   </g>
   <g id="line2d_40">
    <path d="M 293.394371 374.996875 
L 293.394371 28.396875 
" clip-path="url(#pc883fb734b)" style="fill: none; stroke-dasharray: 5.55,2.4; stroke-dashoffset: 0; stroke: #000000; stroke-width: 1.5"/>
   </g>
   <g id="patch_3">
    <path d="M 33.2875 374.996875 
L 33.2875 28.396875 
" style="fill: none; stroke: #000000; stroke-width: 0.8; stroke-linejoin: miter; stroke-linecap: square"/>
   </g>
   <g id="patch_4">
    <path d="M 558.3225 374.996875 
L 558.3225 28.396875 
" style="fill: none; stroke: #000000; stroke-width: 0.8; stroke-linejoin: miter; stroke-linecap: square"/>
   </g>
   <g id="patch_5">
    <path d="M 33.2875 374.996875 
L 558.3225 374.996875 
" style="fill: none; stroke: #000000; stroke-width: 0.8; stroke-linejoin: miter; stroke-linecap: square"/>
   </g>
   <g id="patch_6">
    <path d="M 33.2875 28.396875 
L 558.3225 28.396875 
" style="fill: none; stroke: #000000; stroke-width: 0.8; stroke-linejoin: miter; stroke-linecap: square"/>
   </g>
   <g id="text_16">
    <!-- Full Generator Objective -->
    <g transform="translate(174.151875 22.396875)scale(0.2 -0.2)">
     <defs>
      <path id="DejaVuSans-46" d="M 628 4666 
L 3309 4666 
L 3309 4134 
L 1259 4134 
L 1259 2759 
L 3109 2759 
L 3109 2228 
L 1259 2228 
L 1259 0 
L 628 0 
L 628 4666 
z
" transform="scale(0.015625)"/>
      <path id="DejaVuSans-75" d="M 544 1381 
L 544 3500 
L 1119 3500 
L 1119 1403 
Q 1119 906 1312 657 
Q 1506 409 1894 409 
Q 2359 409 2629 706 
Q 2900 1003 2900 1516 
L 2900 3500 
L 3475 3500 
L 3475 0 
L 2900 0 
L 2900 538 
Q 2691 219 2414 64 
Q 2138 -91 1772 -91 
Q 1169 -91 856 284 
Q 544 659 544 1381 
z
M 1991 3584 
L 1991 3584 
z
" transform="scale(0.015625)"/>
      <path id="DejaVuSans-6c" d="M 603 4863 
L 1178 4863 
L 1178 0 
L 603 0 
L 603 4863 
z
" transform="scale(0.015625)"/>
      <path id="DejaVuSans-20" transform="scale(0.015625)"/>
      <path id="DejaVuSans-47" d="M 3809 666 
L 3809 1919 
L 2778 1919 
L 2778 2438 
L 4434 2438 
L 4434 434 
Q 4069 175 3628 42 
Q 3188 -91 2688 -91 
Q 1594 -91 976 548 
Q 359 1188 359 2328 
Q 359 3472 976 4111 
Q 1594 4750 2688 4750 
Q 3144 4750 3555 4637 
Q 3966 4525 4313 4306 
L 4313 3634 
Q 3963 3931 3569 4081 
Q 3175 4231 2741 4231 
Q 1884 4231 1454 3753 
Q 1025 3275 1025 2328 
Q 1025 1384 1454 906 
Q 1884 428 2741 428 
Q 3075 428 3337 486 
Q 3600 544 3809 666 
z
" transform="scale(0.015625)"/>
      <path id="DejaVuSans-65" d="M 3597 1894 
L 3597 1613 
L 953 1613 
Q 991 1019 1311 708 
Q 1631 397 2203 397 
Q 2534 397 2845 478 
Q 3156 559 3463 722 
L 3463 178 
Q 3153 47 2828 -22 
Q 2503 -91 2169 -91 
Q 1331 -91 842 396 
Q 353 884 353 1716 
Q 353 2575 817 3079 
Q 1281 3584 2069 3584 
Q 2775 3584 3186 3129 
Q 3597 2675 3597 1894 
z
M 3022 2063 
Q 3016 2534 2758 2815 
Q 2500 3097 2075 3097 
Q 1594 3097 1305 2825 
Q 1016 2553 972 2059 
L 3022 2063 
z
" transform="scale(0.015625)"/>
      <path id="DejaVuSans-6e" d="M 3513 2113 
L 3513 0 
L 2938 0 
L 2938 2094 
Q 2938 2591 2744 2837 
Q 2550 3084 2163 3084 
Q 1697 3084 1428 2787 
Q 1159 2491 1159 1978 
L 1159 0 
L 581 0 
L 581 3500 
L 1159 3500 
L 1159 2956 
Q 1366 3272 1645 3428 
Q 1925 3584 2291 3584 
Q 2894 3584 3203 3211 
Q 3513 2838 3513 2113 
z
" transform="scale(0.015625)"/>
      <path id="DejaVuSans-72" d="M 2631 2963 
Q 2534 3019 2420 3045 
Q 2306 3072 2169 3072 
Q 1681 3072 1420 2755 
Q 1159 2438 1159 1844 
L 1159 0 
L 581 0 
L 581 3500 
L 1159 3500 
L 1159 2956 
Q 1341 3275 1631 3429 
Q 1922 3584 2338 3584 
Q 2397 3584 2469 3576 
Q 2541 3569 2628 3553 
L 2631 2963 
z
" transform="scale(0.015625)"/>
      <path id="DejaVuSans-61" d="M 2194 1759 
Q 1497 1759 1228 1600 
Q 959 1441 959 1056 
Q 959 750 1161 570 
Q 1363 391 1709 391 
Q 2188 391 2477 730 
Q 2766 1069 2766 1631 
L 2766 1759 
L 2194 1759 
z
M 3341 1997 
L 3341 0 
L 2766 0 
L 2766 531 
Q 2569 213 2275 61 
Q 1981 -91 1556 -91 
Q 1019 -91 701 211 
Q 384 513 384 1019 
Q 384 1609 779 1909 
Q 1175 2209 1959 2209 
L 2766 2209 
L 2766 2266 
Q 2766 2663 2505 2880 
Q 2244 3097 1772 3097 
Q 1472 3097 1187 3025 
Q 903 2953 641 2809 
L 641 3341 
Q 956 3463 1253 3523 
Q 1550 3584 1831 3584 
Q 2591 3584 2966 3190 
Q 3341 2797 3341 1997 
z
" transform="scale(0.015625)"/>
      <path id="DejaVuSans-74" d="M 1172 4494 
L 1172 3500 
L 2356 3500 
L 2356 3053 
L 1172 3053 
L 1172 1153 
Q 1172 725 1289 603 
Q 1406 481 1766 481 
L 2356 481 
L 2356 0 
L 1766 0 
Q 1100 0 847 248 
Q 594 497 594 1153 
L 594 3053 
L 172 3053 
L 172 3500 
L 594 3500 
L 594 4494 
L 1172 4494 
z
" transform="scale(0.015625)"/>
      <path id="DejaVuSans-4f" d="M 2522 4238 
Q 1834 4238 1429 3725 
Q 1025 3213 1025 2328 
Q 1025 1447 1429 934 
Q 1834 422 2522 422 
Q 3209 422 3611 934 
Q 4013 1447 4013 2328 
Q 4013 3213 3611 3725 
Q 3209 4238 2522 4238 
z
M 2522 4750 
Q 3503 4750 4090 4092 
Q 4678 3434 4678 2328 
Q 4678 1225 4090 567 
Q 3503 -91 2522 -91 
Q 1538 -91 948 565 
Q 359 1222 359 2328 
Q 359 3434 948 4092 
Q 1538 4750 2522 4750 
z
" transform="scale(0.015625)"/>
      <path id="DejaVuSans-62" d="M 3116 1747 
Q 3116 2381 2855 2742 
Q 2594 3103 2138 3103 
Q 1681 3103 1420 2742 
Q 1159 2381 1159 1747 
Q 1159 1113 1420 752 
Q 1681 391 2138 391 
Q 2594 391 2855 752 
Q 3116 1113 3116 1747 
z
M 1159 2969 
Q 1341 3281 1617 3432 
Q 1894 3584 2278 3584 
Q 2916 3584 3314 3078 
Q 3713 2572 3713 1747 
Q 3713 922 3314 415 
Q 2916 -91 2278 -91 
Q 1894 -91 1617 61 
Q 1341 213 1159 525 
L 1159 0 
L 581 0 
L 581 4863 
L 1159 4863 
L 1159 2969 
z
" transform="scale(0.015625)"/>
      <path id="DejaVuSans-6a" d="M 603 3500 
L 1178 3500 
L 1178 -63 
Q 1178 -731 923 -1031 
Q 669 -1331 103 -1331 
L -116 -1331 
L -116 -844 
L 38 -844 
Q 366 -844 484 -692 
Q 603 -541 603 -63 
L 603 3500 
z
M 603 4863 
L 1178 4863 
L 1178 4134 
L 603 4134 
L 603 4863 
z
" transform="scale(0.015625)"/>
      <path id="DejaVuSans-69" d="M 603 3500 
L 1178 3500 
L 1178 0 
L 603 0 
L 603 3500 
z
M 603 4863 
L 1178 4863 
L 1178 4134 
L 603 4134 
L 603 4863 
z
" transform="scale(0.015625)"/>
      <path id="DejaVuSans-76" d="M 191 3500 
L 800 3500 
L 1894 563 
L 2988 3500 
L 3597 3500 
L 2284 0 
L 1503 0 
L 191 3500 
z
" transform="scale(0.015625)"/>
     </defs>
     <use xlink:href="#DejaVuSans-46"/>
     <use xlink:href="#DejaVuSans-75" x="52.019531"/>
     <use xlink:href="#DejaVuSans-6c" x="115.398438"/>
     <use xlink:href="#DejaVuSans-6c" x="143.181641"/>
     <use xlink:href="#DejaVuSans-20" x="170.964844"/>
     <use xlink:href="#DejaVuSans-47" x="202.751953"/>
     <use xlink:href="#DejaVuSans-65" x="280.242188"/>
     <use xlink:href="#DejaVuSans-6e" x="341.765625"/>
     <use xlink:href="#DejaVuSans-65" x="405.144531"/>
     <use xlink:href="#DejaVuSans-72" x="466.667969"/>
     <use xlink:href="#DejaVuSans-61" x="507.78125"/>
     <use xlink:href="#DejaVuSans-74" x="569.060547"/>
     <use xlink:href="#DejaVuSans-6f" x="608.269531"/>
     <use xlink:href="#DejaVuSans-72" x="669.451172"/>
     <use xlink:href="#DejaVuSans-20" x="710.564453"/>
     <use xlink:href="#DejaVuSans-4f" x="742.351562"/>
     <use xlink:href="#DejaVuSans-62" x="821.0625"/>
     <use xlink:href="#DejaVuSans-6a" x="884.539062"/>
     <use xlink:href="#DejaVuSans-65" x="912.322266"/>
     <use xlink:href="#DejaVuSans-63" x="973.845703"/>
     <use xlink:href="#DejaVuSans-74" x="1028.826172"/>
     <use xlink:href="#DejaVuSans-69" x="1068.035156"/>
     <use xlink:href="#DejaVuSans-76" x="1095.818359"/>
     <use xlink:href="#DejaVuSans-65" x="1154.998047"/>
    </g>
   </g>
  </g>
  <g id="axes_2">
   <g id="patch_7">
    <path d="M 612.5725 374.996875 
L 1137.6075 374.996875 
L 1137.6075 28.396875 
L 612.5725 28.396875 
z
" style="fill: #ffffff"/>
   </g>
   <g id="matplotlib.axis_3">
    <g id="xtick_7">
     <g id="line2d_41">
      <path d="M 636.437727 374.996875 
L 636.437727 28.396875 
" clip-path="url(#p1b02b997b4)" style="fill: none; stroke: #b0b0b0; stroke-width: 0.8; stroke-linecap: square"/>
     </g>
     <g id="line2d_42">
      <g>
       <use xlink:href="#m2aae423e92" x="636.437727" y="374.996875" style="stroke: #000000; stroke-width: 0.8"/>
      </g>
     </g>
     <g id="text_17">
      <!-- 0 -->
      <g transform="translate(631.665852 393.394531)scale(0.15 -0.15)">
       <use xlink:href="#DejaVuSans-30"/>
      </g>
     </g>
    </g>
    <g id="xtick_8">
     <g id="line2d_43">
      <path d="M 732.862888 374.996875 
L 732.862888 28.396875 
" clip-path="url(#p1b02b997b4)" style="fill: none; stroke: #b0b0b0; stroke-width: 0.8; stroke-linecap: square"/>
     </g>
     <g id="line2d_44">
      <g>
       <use xlink:href="#m2aae423e92" x="732.862888" y="374.996875" style="stroke: #000000; stroke-width: 0.8"/>
      </g>
     </g>
     <g id="text_18">
      <!-- 20 -->
      <g transform="translate(723.319138 393.394531)scale(0.15 -0.15)">
       <use xlink:href="#DejaVuSans-32"/>
       <use xlink:href="#DejaVuSans-30" x="63.623047"/>
      </g>
     </g>
    </g>
    <g id="xtick_9">
     <g id="line2d_45">
      <path d="M 829.288049 374.996875 
L 829.288049 28.396875 
" clip-path="url(#p1b02b997b4)" style="fill: none; stroke: #b0b0b0; stroke-width: 0.8; stroke-linecap: square"/>
     </g>
     <g id="line2d_46">
      <g>
       <use xlink:href="#m2aae423e92" x="829.288049" y="374.996875" style="stroke: #000000; stroke-width: 0.8"/>
      </g>
     </g>
     <g id="text_19">
      <!-- 40 -->
      <g transform="translate(819.744299 393.394531)scale(0.15 -0.15)">
       <use xlink:href="#DejaVuSans-34"/>
       <use xlink:href="#DejaVuSans-30" x="63.623047"/>
      </g>
     </g>
    </g>
    <g id="xtick_10">
     <g id="line2d_47">
      <path d="M 925.713209 374.996875 
L 925.713209 28.396875 
" clip-path="url(#p1b02b997b4)" style="fill: none; stroke: #b0b0b0; stroke-width: 0.8; stroke-linecap: square"/>
     </g>
     <g id="line2d_48">
      <g>
       <use xlink:href="#m2aae423e92" x="925.713209" y="374.996875" style="stroke: #000000; stroke-width: 0.8"/>
      </g>
     </g>
     <g id="text_20">
      <!-- 60 -->
      <g transform="translate(916.169459 393.394531)scale(0.15 -0.15)">
       <use xlink:href="#DejaVuSans-36"/>
       <use xlink:href="#DejaVuSans-30" x="63.623047"/>
      </g>
     </g>
    </g>
    <g id="xtick_11">
     <g id="line2d_49">
      <path d="M 1022.13837 374.996875 
L 1022.13837 28.396875 
" clip-path="url(#p1b02b997b4)" style="fill: none; stroke: #b0b0b0; stroke-width: 0.8; stroke-linecap: square"/>
     </g>
     <g id="line2d_50">
      <g>
       <use xlink:href="#m2aae423e92" x="1022.13837" y="374.996875" style="stroke: #000000; stroke-width: 0.8"/>
      </g>
     </g>
     <g id="text_21">
      <!-- 80 -->
      <g transform="translate(1012.59462 393.394531)scale(0.15 -0.15)">
       <use xlink:href="#DejaVuSans-38"/>
       <use xlink:href="#DejaVuSans-30" x="63.623047"/>
      </g>
     </g>
    </g>
    <g id="xtick_12">
     <g id="line2d_51">
      <path d="M 1118.563531 374.996875 
L 1118.563531 28.396875 
" clip-path="url(#p1b02b997b4)" style="fill: none; stroke: #b0b0b0; stroke-width: 0.8; stroke-linecap: square"/>
     </g>
     <g id="line2d_52">
      <g>
       <use xlink:href="#m2aae423e92" x="1118.563531" y="374.996875" style="stroke: #000000; stroke-width: 0.8"/>
      </g>
     </g>
     <g id="text_22">
      <!-- 100 -->
      <g transform="translate(1104.247906 393.394531)scale(0.15 -0.15)">
       <use xlink:href="#DejaVuSans-31"/>
       <use xlink:href="#DejaVuSans-30" x="63.623047"/>
       <use xlink:href="#DejaVuSans-30" x="127.246094"/>
      </g>
     </g>
    </g>
    <g id="text_23">
     <!-- Epochs -->
     <g transform="translate(844.633437 413.431406)scale(0.17 -0.17)">
      <use xlink:href="#DejaVuSans-45"/>
      <use xlink:href="#DejaVuSans-70" x="63.183594"/>
      <use xlink:href="#DejaVuSans-6f" x="126.660156"/>
      <use xlink:href="#DejaVuSans-63" x="187.841797"/>
      <use xlink:href="#DejaVuSans-68" x="242.822266"/>
      <use xlink:href="#DejaVuSans-73" x="306.201172"/>
     </g>
    </g>
   </g>
   <g id="matplotlib.axis_4">
    <g id="ytick_9">
     <g id="line2d_53">
      <path d="M 612.5725 316.768135 
L 1137.6075 316.768135 
" clip-path="url(#p1b02b997b4)" style="fill: none; stroke: #b0b0b0; stroke-width: 0.8; stroke-linecap: square"/>
     </g>
     <g id="line2d_54">
      <g>
       <use xlink:href="#m90889e13ea" x="612.5725" y="316.768135" style="stroke: #000000; stroke-width: 0.8"/>
      </g>
     </g>
     <g id="text_24">
      <!-- −1.2 -->
      <g transform="translate(569.148281 322.466963)scale(0.15 -0.15)">
       <defs>
        <path id="DejaVuSans-2212" d="M 678 2272 
L 4684 2272 
L 4684 1741 
L 678 1741 
L 678 2272 
z
" transform="scale(0.015625)"/>
        <path id="DejaVuSans-2e" d="M 684 794 
L 1344 794 
L 1344 0 
L 684 0 
L 684 794 
z
" transform="scale(0.015625)"/>
       </defs>
       <use xlink:href="#DejaVuSans-2212"/>
       <use xlink:href="#DejaVuSans-31" x="83.789062"/>
       <use xlink:href="#DejaVuSans-2e" x="147.412109"/>
       <use xlink:href="#DejaVuSans-32" x="179.199219"/>
      </g>
     </g>
    </g>
    <g id="ytick_10">
     <g id="line2d_55">
      <path d="M 612.5725 246.841546 
L 1137.6075 246.841546 
" clip-path="url(#p1b02b997b4)" style="fill: none; stroke: #b0b0b0; stroke-width: 0.8; stroke-linecap: square"/>
     </g>
     <g id="line2d_56">
      <g>
       <use xlink:href="#m90889e13ea" x="612.5725" y="246.841546" style="stroke: #000000; stroke-width: 0.8"/>
      </g>
     </g>
     <g id="text_25">
      <!-- −1.0 -->
      <g transform="translate(569.148281 252.540374)scale(0.15 -0.15)">
       <use xlink:href="#DejaVuSans-2212"/>
       <use xlink:href="#DejaVuSans-31" x="83.789062"/>
       <use xlink:href="#DejaVuSans-2e" x="147.412109"/>
       <use xlink:href="#DejaVuSans-30" x="179.199219"/>
      </g>
     </g>
    </g>
    <g id="ytick_11">
     <g id="line2d_57">
      <path d="M 612.5725 176.914956 
L 1137.6075 176.914956 
" clip-path="url(#p1b02b997b4)" style="fill: none; stroke: #b0b0b0; stroke-width: 0.8; stroke-linecap: square"/>
     </g>
     <g id="line2d_58">
      <g>
       <use xlink:href="#m90889e13ea" x="612.5725" y="176.914956" style="stroke: #000000; stroke-width: 0.8"/>
      </g>
     </g>
     <g id="text_26">
      <!-- −0.8 -->
      <g transform="translate(569.148281 182.613784)scale(0.15 -0.15)">
       <use xlink:href="#DejaVuSans-2212"/>
       <use xlink:href="#DejaVuSans-30" x="83.789062"/>
       <use xlink:href="#DejaVuSans-2e" x="147.412109"/>
       <use xlink:href="#DejaVuSans-38" x="179.199219"/>
      </g>
     </g>
    </g>
    <g id="ytick_12">
     <g id="line2d_59">
      <path d="M 612.5725 106.988366 
L 1137.6075 106.988366 
" clip-path="url(#p1b02b997b4)" style="fill: none; stroke: #b0b0b0; stroke-width: 0.8; stroke-linecap: square"/>
     </g>
     <g id="line2d_60">
      <g>
       <use xlink:href="#m90889e13ea" x="612.5725" y="106.988366" style="stroke: #000000; stroke-width: 0.8"/>
      </g>
     </g>
     <g id="text_27">
      <!-- −0.6 -->
      <g transform="translate(569.148281 112.687194)scale(0.15 -0.15)">
       <use xlink:href="#DejaVuSans-2212"/>
       <use xlink:href="#DejaVuSans-30" x="83.789062"/>
       <use xlink:href="#DejaVuSans-2e" x="147.412109"/>
       <use xlink:href="#DejaVuSans-36" x="179.199219"/>
      </g>
     </g>
    </g>
    <g id="ytick_13">
     <g id="line2d_61">
      <path d="M 612.5725 37.061776 
L 1137.6075 37.061776 
" clip-path="url(#p1b02b997b4)" style="fill: none; stroke: #b0b0b0; stroke-width: 0.8; stroke-linecap: square"/>
     </g>
     <g id="line2d_62">
      <g>
       <use xlink:href="#m90889e13ea" x="612.5725" y="37.061776" style="stroke: #000000; stroke-width: 0.8"/>
      </g>
     </g>
     <g id="text_28">
      <!-- −0.4 -->
      <g transform="translate(569.148281 42.760605)scale(0.15 -0.15)">
       <use xlink:href="#DejaVuSans-2212"/>
       <use xlink:href="#DejaVuSans-30" x="83.789062"/>
       <use xlink:href="#DejaVuSans-2e" x="147.412109"/>
       <use xlink:href="#DejaVuSans-34" x="179.199219"/>
      </g>
     </g>
    </g>
   </g>
   <g id="line2d_63">
    <path d="M 636.437727 157.410593 
L 641.258985 160.813014 
L 646.080243 101.261112 
L 650.901501 105.158497 
L 655.722759 61.702472 
L 660.544017 50.382616 
L 665.365275 119.960177 
L 670.186534 124.938704 
L 675.007792 171.178215 
L 679.82905 198.314638 
L 684.650308 203.636964 
L 689.471566 212.715448 
L 694.292824 226.714119 
L 699.114082 232.697148 
L 703.93534 243.039284 
L 708.756598 237.994341 
L 713.577856 242.033693 
L 718.399114 245.309116 
L 723.220372 245.60633 
L 728.04163 235.360817 
L 732.862888 231.212782 
L 737.684146 238.657443 
L 742.505404 235.595316 
L 747.326662 230.231673 
L 752.14792 234.800407 
L 756.969178 230.464244 
L 761.790436 235.432313 
L 766.611694 230.815623 
L 771.432952 233.907458 
L 776.25421 221.267611 
L 781.075468 193.089989 
L 785.896726 190.341298 
L 790.717984 185.413902 
L 795.539242 182.704203 
L 800.3605 184.28008 
L 805.181758 184.074863 
L 810.003017 184.939513 
L 814.824275 183.154167 
L 819.645533 185.176124 
L 824.466791 184.660855 
L 829.288049 184.880693 
L 834.109307 182.593263 
L 838.930565 184.384973 
L 843.751823 183.995028 
L 848.573081 182.61146 
L 853.394339 184.999529 
L 858.215597 183.08436 
L 863.036855 190.147017 
L 867.858113 179.661535 
L 872.679371 55.259192 
L 877.500629 44.15142 
L 882.321887 51.557728 
L 887.143145 55.757977 
L 891.964403 62.091305 
L 896.785661 59.100003 
L 901.606919 62.214282 
L 906.428177 62.314568 
L 911.249435 66.048251 
L 916.070693 63.468522 
L 920.891951 70.156188 
L 925.713209 66.420069 
L 930.534467 65.478884 
L 935.355725 70.070203 
L 940.176983 66.576745 
L 944.998242 70.079502 
L 949.8195 74.233481 
L 954.640758 71.549616 
L 959.462016 71.303204 
L 964.283274 71.210565 
L 969.104532 68.296987 
L 973.92579 78.08116 
L 978.747048 68.062378 
L 983.568306 71.033788 
L 988.389564 75.132908 
L 993.210822 76.686194 
L 998.03208 71.012126 
L 1002.853338 80.566317 
L 1007.674596 72.45128 
L 1012.495854 76.838748 
L 1017.317112 78.458875 
L 1022.13837 79.474767 
L 1026.959628 78.07491 
L 1031.780886 80.765289 
L 1036.602144 76.478503 
L 1041.423402 77.651447 
L 1046.24466 82.22174 
L 1051.065918 81.457457 
L 1055.887176 80.403015 
L 1060.708434 80.226544 
L 1065.529692 79.043418 
L 1070.35095 77.708031 
L 1075.172208 80.965165 
L 1079.993466 82.299328 
L 1084.814725 76.555825 
L 1089.635983 77.829441 
L 1094.457241 78.49709 
L 1099.278499 82.441599 
L 1104.099757 83.036239 
L 1108.921015 77.079367 
L 1113.742273 79.722289 
" clip-path="url(#p1b02b997b4)" style="fill: none; stroke: #0000ff; stroke-width: 1.5; stroke-linecap: square"/>
   </g>
   <g id="line2d_64">
    <path d="M 776.25421 374.996875 
L 776.25421 28.396875 
" clip-path="url(#p1b02b997b4)" style="fill: none; stroke-dasharray: 1.5,2.475; stroke-dashoffset: 0; stroke: #000000; stroke-width: 1.5"/>
   </g>
   <g id="line2d_65">
    <path d="M 872.679371 374.996875 
L 872.679371 28.396875 
" clip-path="url(#p1b02b997b4)" style="fill: none; stroke-dasharray: 5.55,2.4; stroke-dashoffset: 0; stroke: #000000; stroke-width: 1.5"/>
   </g>
   <g id="line2d_66">
    <path d="M 636.437727 181.084008 
L 641.258985 95.283408 
L 646.080243 277.161908 
L 650.901501 315.208331 
L 655.722759 306.122395 
L 660.544017 313.310251 
L 665.365275 321.175891 
L 670.186534 333.71687 
L 675.007792 342.236177 
L 679.82905 341.047758 
L 684.650308 340.656431 
L 689.471566 341.072621 
L 694.292824 345.144063 
L 699.114082 343.563482 
L 703.93534 341.45742 
L 708.756598 341.598792 
L 713.577856 339.209914 
L 718.399114 336.817449 
L 723.220372 339.517237 
L 728.04163 338.821084 
L 732.862888 338.380074 
L 737.684146 335.982802 
L 742.505404 339.585192 
L 747.326662 335.31101 
L 752.14792 328.652285 
L 756.969178 330.144845 
L 761.790436 329.249855 
L 766.611694 330.139717 
L 771.432952 328.839186 
L 776.25421 320.878927 
L 781.075468 321.491212 
L 785.896726 315.71258 
L 790.717984 310.016904 
L 795.539242 307.920423 
L 800.3605 308.585738 
L 805.181758 305.802903 
L 810.003017 303.766373 
L 814.824275 303.584263 
L 819.645533 301.526178 
L 824.466791 300.8892 
L 829.288049 300.506701 
L 834.109307 294.704238 
L 838.930565 295.847474 
L 843.751823 292.990834 
L 848.573081 290.85231 
L 853.394339 290.854395 
L 858.215597 291.750481 
L 863.036855 288.515987 
L 867.858113 287.487954 
L 872.679371 163.08845 
L 877.500629 166.255573 
L 882.321887 171.460909 
L 887.143145 173.687955 
L 891.964403 171.517032 
L 896.785661 171.69772 
L 901.606919 169.308452 
L 906.428177 168.137466 
L 911.249435 173.645033 
L 916.070693 170.820641 
L 920.891951 168.244202 
L 925.713209 171.090195 
L 930.534467 168.138224 
L 935.355725 167.23234 
L 940.176983 166.092756 
L 944.998242 166.209422 
L 949.8195 168.045489 
L 954.640758 169.764254 
L 959.462016 169.170816 
L 964.283274 169.87003 
L 969.104532 164.967148 
L 973.92579 163.849771 
L 978.747048 167.683834 
L 983.568306 165.996955 
L 988.389564 166.094028 
L 993.210822 167.414746 
L 998.03208 166.172614 
L 1002.853338 166.85691 
L 1007.674596 168.328811 
L 1012.495854 167.805596 
L 1017.317112 170.13622 
L 1022.13837 164.718151 
L 1026.959628 170.812988 
L 1031.780886 163.567296 
L 1036.602144 168.114944 
L 1041.423402 164.283277 
L 1046.24466 169.564851 
L 1051.065918 171.214213 
L 1055.887176 169.824477 
L 1060.708434 174.367612 
L 1065.529692 172.900797 
L 1070.35095 167.634291 
L 1075.172208 173.707239 
L 1079.993466 170.247737 
L 1084.814725 169.746956 
L 1089.635983 168.862763 
L 1094.457241 168.310177 
L 1099.278499 166.985888 
L 1104.099757 170.622347 
L 1108.921015 167.387095 
L 1113.742273 169.006802 
" clip-path="url(#p1b02b997b4)" style="fill: none; stroke: #ff0000; stroke-width: 1.5; stroke-linecap: square"/>
   </g>
   <g id="line2d_67">
    <path d="M 776.25421 374.996875 
L 776.25421 28.396875 
" clip-path="url(#p1b02b997b4)" style="fill: none; stroke-dasharray: 1.5,2.475; stroke-dashoffset: 0; stroke: #000000; stroke-width: 1.5"/>
   </g>
   <g id="line2d_68">
    <path d="M 872.679371 374.996875 
L 872.679371 28.396875 
" clip-path="url(#p1b02b997b4)" style="fill: none; stroke-dasharray: 5.55,2.4; stroke-dashoffset: 0; stroke: #000000; stroke-width: 1.5"/>
   </g>
   <g id="line2d_69">
    <path d="M 636.437727 224.66945 
L 641.258985 111.09021 
L 646.080243 169.835677 
L 650.901501 74.473523 
L 655.722759 70.316118 
L 660.544017 127.627659 
L 665.365275 209.850691 
L 670.186534 166.242227 
L 675.007792 237.211436 
L 679.82905 271.625278 
L 684.650308 221.676529 
L 689.471566 321.556303 
L 694.292824 229.308326 
L 699.114082 265.785731 
L 703.93534 289.623099 
L 708.756598 234.363174 
L 713.577856 270.938869 
L 718.399114 273.827581 
L 723.220372 250.550531 
L 728.04163 247.243201 
L 732.862888 235.474714 
L 737.684146 278.776052 
L 742.505404 233.486133 
L 747.326662 257.464044 
L 752.14792 227.558517 
L 756.969178 281.181678 
L 761.790436 247.533019 
L 766.611694 302.782139 
L 771.432952 235.126211 
L 776.25421 255.001891 
L 781.075468 246.615007 
L 785.896726 266.301389 
L 790.717984 241.049617 
L 795.539242 234.535664 
L 800.3605 232.659649 
L 805.181758 245.256641 
L 810.003017 234.220578 
L 814.824275 235.051594 
L 819.645533 251.10019 
L 824.466791 241.143646 
L 829.288049 231.512828 
L 834.109307 246.279008 
L 838.930565 234.239771 
L 843.751823 245.017484 
L 848.573081 244.856872 
L 853.394339 223.591223 
L 858.215597 246.821498 
L 863.036855 233.510234 
L 867.858113 245.065676 
L 872.679371 97.591722 
L 877.500629 96.519319 
L 882.321887 108.476266 
L 887.143145 116.901822 
L 891.964403 115.306925 
L 896.785661 115.627279 
L 901.606919 118.437626 
L 906.428177 122.441866 
L 911.249435 133.774969 
L 916.070693 150.638447 
L 920.891951 125.660784 
L 925.713209 119.088253 
L 930.534467 113.616669 
L 935.355725 122.510942 
L 940.176983 168.235526 
L 944.998242 142.127492 
L 949.8195 125.202243 
L 954.640758 147.141177 
L 959.462016 152.725369 
L 964.283274 137.678544 
L 969.104532 140.212092 
L 973.92579 140.544703 
L 978.747048 144.269454 
L 983.568306 143.810531 
L 988.389564 130.297368 
L 993.210822 147.346782 
L 998.03208 152.696612 
L 1002.853338 150.208002 
L 1007.674596 173.462722 
L 1012.495854 152.34526 
L 1017.317112 159.59228 
L 1022.13837 146.342325 
L 1026.959628 190.931112 
L 1031.780886 143.054361 
L 1036.602144 144.554552 
L 1041.423402 147.939715 
L 1046.24466 118.295449 
L 1051.065918 144.437287 
L 1055.887176 136.792179 
L 1060.708434 168.368965 
L 1065.529692 148.889078 
L 1070.35095 146.443952 
L 1075.172208 174.74623 
L 1079.993466 140.342732 
L 1084.814725 153.858995 
L 1089.635983 174.344781 
L 1094.457241 155.427019 
L 1099.278499 150.192873 
L 1104.099757 168.460945 
L 1108.921015 152.679275 
L 1113.742273 158.887788 
" clip-path="url(#p1b02b997b4)" style="fill: none; stroke-dasharray: 5.55,2.4; stroke-dashoffset: 0; stroke: #0000ff; stroke-width: 1.5"/>
   </g>
   <g id="line2d_70">
    <path d="M 776.25421 374.996875 
L 776.25421 28.396875 
" clip-path="url(#p1b02b997b4)" style="fill: none; stroke-dasharray: 1.5,2.475; stroke-dashoffset: 0; stroke: #000000; stroke-width: 1.5"/>
   </g>
   <g id="line2d_71">
    <path d="M 872.679371 374.996875 
L 872.679371 28.396875 
" clip-path="url(#p1b02b997b4)" style="fill: none; stroke-dasharray: 5.55,2.4; stroke-dashoffset: 0; stroke: #000000; stroke-width: 1.5"/>
   </g>
   <g id="line2d_72">
    <path d="M 636.437727 140.949651 
L 641.258985 164.158461 
L 646.080243 311.346025 
L 650.901501 319.348269 
L 655.722759 300.638729 
L 660.544017 293.801854 
L 665.365275 325.758711 
L 670.186534 330.844047 
L 675.007792 336.771101 
L 679.82905 341.573079 
L 684.650308 354.15541 
L 689.471566 349.794776 
L 694.292824 344.202867 
L 699.114082 359.24233 
L 703.93534 352.303444 
L 708.756598 335.996487 
L 713.577856 350.433264 
L 718.399114 341.209946 
L 723.220372 334.994804 
L 728.04163 349.675739 
L 732.862888 346.067358 
L 737.684146 341.144613 
L 742.505404 354.812966 
L 747.326662 343.252366 
L 752.14792 331.572209 
L 756.969178 322.651859 
L 761.790436 354.463504 
L 766.611694 329.838217 
L 771.432952 339.913985 
L 776.25421 344.369773 
L 781.075468 349.700934 
L 785.896726 333.804229 
L 790.717984 323.926855 
L 795.539242 332.838515 
L 800.3605 331.965559 
L 805.181758 344.793257 
L 810.003017 325.849551 
L 814.824275 324.891277 
L 819.645533 336.957189 
L 824.466791 327.417117 
L 829.288049 330.340309 
L 834.109307 324.88415 
L 838.930565 320.274815 
L 843.751823 322.750139 
L 848.573081 322.31563 
L 853.394339 322.463488 
L 858.215597 317.417852 
L 863.036855 311.131771 
L 867.858113 316.429298 
L 872.679371 210.694474 
L 877.500629 190.821841 
L 882.321887 201.102463 
L 887.143145 196.873991 
L 891.964403 198.320553 
L 896.785661 196.865121 
L 901.606919 197.942115 
L 906.428177 193.605739 
L 911.249435 188.434493 
L 916.070693 199.856596 
L 920.891951 189.64417 
L 925.713209 193.041703 
L 930.534467 201.412621 
L 935.355725 205.770275 
L 940.176983 193.528611 
L 944.998242 199.839437 
L 949.8195 200.232404 
L 954.640758 198.550303 
L 959.462016 204.215701 
L 964.283274 193.809618 
L 969.104532 195.244894 
L 973.92579 193.687043 
L 978.747048 184.538211 
L 983.568306 196.886728 
L 988.389564 204.38156 
L 993.210822 206.144307 
L 998.03208 206.187045 
L 1002.853338 194.095736 
L 1007.674596 210.202347 
L 1012.495854 205.164964 
L 1017.317112 200.235163 
L 1022.13837 207.269849 
L 1026.959628 189.521011 
L 1031.780886 201.077514 
L 1036.602144 197.377883 
L 1041.423402 207.1377 
L 1046.24466 183.591048 
L 1051.065918 193.836477 
L 1055.887176 200.033934 
L 1060.708434 203.682136 
L 1065.529692 206.630348 
L 1070.35095 193.464554 
L 1075.172208 205.218972 
L 1079.993466 203.921439 
L 1084.814725 208.848414 
L 1089.635983 199.167376 
L 1094.457241 201.668883 
L 1099.278499 205.207272 
L 1104.099757 198.605607 
L 1108.921015 198.366417 
L 1113.742273 202.686272 
" clip-path="url(#p1b02b997b4)" style="fill: none; stroke-dasharray: 5.55,2.4; stroke-dashoffset: 0; stroke: #ff0000; stroke-width: 1.5"/>
   </g>
   <g id="line2d_73">
    <path d="M 776.25421 374.996875 
L 776.25421 28.396875 
" clip-path="url(#p1b02b997b4)" style="fill: none; stroke-dasharray: 1.5,2.475; stroke-dashoffset: 0; stroke: #000000; stroke-width: 1.5"/>
   </g>
   <g id="line2d_74">
    <path d="M 872.679371 374.996875 
L 872.679371 28.396875 
" clip-path="url(#p1b02b997b4)" style="fill: none; stroke-dasharray: 5.55,2.4; stroke-dashoffset: 0; stroke: #000000; stroke-width: 1.5"/>
   </g>
   <g id="patch_8">
    <path d="M 612.5725 374.996875 
L 612.5725 28.396875 
" style="fill: none; stroke: #000000; stroke-width: 0.8; stroke-linejoin: miter; stroke-linecap: square"/>
   </g>
   <g id="patch_9">
    <path d="M 1137.6075 374.996875 
L 1137.6075 28.396875 
" style="fill: none; stroke: #000000; stroke-width: 0.8; stroke-linejoin: miter; stroke-linecap: square"/>
   </g>
   <g id="patch_10">
    <path d="M 612.5725 374.996875 
L 1137.6075 374.996875 
" style="fill: none; stroke: #000000; stroke-width: 0.8; stroke-linejoin: miter; stroke-linecap: square"/>
   </g>
   <g id="patch_11">
    <path d="M 612.5725 28.396875 
L 1137.6075 28.396875 
" style="fill: none; stroke: #000000; stroke-width: 0.8; stroke-linejoin: miter; stroke-linecap: square"/>
   </g>
   <g id="text_29">
    <!-- Full Discriminator Objective -->
    <g transform="translate(737.00875 22.396875)scale(0.2 -0.2)">
     <defs>
      <path id="DejaVuSans-44" d="M 1259 4147 
L 1259 519 
L 2022 519 
Q 2988 519 3436 956 
Q 3884 1394 3884 2338 
Q 3884 3275 3436 3711 
Q 2988 4147 2022 4147 
L 1259 4147 
z
M 628 4666 
L 1925 4666 
Q 3281 4666 3915 4102 
Q 4550 3538 4550 2338 
Q 4550 1131 3912 565 
Q 3275 0 1925 0 
L 628 0 
L 628 4666 
z
" transform="scale(0.015625)"/>
      <path id="DejaVuSans-6d" d="M 3328 2828 
Q 3544 3216 3844 3400 
Q 4144 3584 4550 3584 
Q 5097 3584 5394 3201 
Q 5691 2819 5691 2113 
L 5691 0 
L 5113 0 
L 5113 2094 
Q 5113 2597 4934 2840 
Q 4756 3084 4391 3084 
Q 3944 3084 3684 2787 
Q 3425 2491 3425 1978 
L 3425 0 
L 2847 0 
L 2847 2094 
Q 2847 2600 2669 2842 
Q 2491 3084 2119 3084 
Q 1678 3084 1418 2786 
Q 1159 2488 1159 1978 
L 1159 0 
L 581 0 
L 581 3500 
L 1159 3500 
L 1159 2956 
Q 1356 3278 1631 3431 
Q 1906 3584 2284 3584 
Q 2666 3584 2933 3390 
Q 3200 3197 3328 2828 
z
" transform="scale(0.015625)"/>
     </defs>
     <use xlink:href="#DejaVuSans-46"/>
     <use xlink:href="#DejaVuSans-75" x="52.019531"/>
     <use xlink:href="#DejaVuSans-6c" x="115.398438"/>
     <use xlink:href="#DejaVuSans-6c" x="143.181641"/>
     <use xlink:href="#DejaVuSans-20" x="170.964844"/>
     <use xlink:href="#DejaVuSans-44" x="202.751953"/>
     <use xlink:href="#DejaVuSans-69" x="279.753906"/>
     <use xlink:href="#DejaVuSans-73" x="307.537109"/>
     <use xlink:href="#DejaVuSans-63" x="359.636719"/>
     <use xlink:href="#DejaVuSans-72" x="414.617188"/>
     <use xlink:href="#DejaVuSans-69" x="455.730469"/>
     <use xlink:href="#DejaVuSans-6d" x="483.513672"/>
     <use xlink:href="#DejaVuSans-69" x="580.925781"/>
     <use xlink:href="#DejaVuSans-6e" x="608.708984"/>
     <use xlink:href="#DejaVuSans-61" x="672.087891"/>
     <use xlink:href="#DejaVuSans-74" x="733.367188"/>
     <use xlink:href="#DejaVuSans-6f" x="772.576172"/>
     <use xlink:href="#DejaVuSans-72" x="833.757812"/>
     <use xlink:href="#DejaVuSans-20" x="874.871094"/>
     <use xlink:href="#DejaVuSans-4f" x="906.658203"/>
     <use xlink:href="#DejaVuSans-62" x="985.369141"/>
     <use xlink:href="#DejaVuSans-6a" x="1048.845703"/>
     <use xlink:href="#DejaVuSans-65" x="1076.628906"/>
     <use xlink:href="#DejaVuSans-63" x="1138.152344"/>
     <use xlink:href="#DejaVuSans-74" x="1193.132812"/>
     <use xlink:href="#DejaVuSans-69" x="1232.341797"/>
     <use xlink:href="#DejaVuSans-76" x="1260.125"/>
     <use xlink:href="#DejaVuSans-65" x="1319.304688"/>
    </g>
   </g>
  </g>
  <g id="legend_1">
   <g id="patch_12">
    <path d="M 280.642969 475.15125 
L 895.9875 475.15125 
Q 898.9875 475.15125 898.9875 472.15125 
L 898.9875 429.616875 
Q 898.9875 426.616875 895.9875 426.616875 
L 280.642969 426.616875 
Q 277.642969 426.616875 277.642969 429.616875 
L 277.642969 472.15125 
Q 277.642969 475.15125 280.642969 475.15125 
z
" style="fill: #ffffff; opacity: 0.8; stroke: #cccccc; stroke-linejoin: miter"/>
   </g>
   <g id="line2d_75">
    <path d="M 283.642969 438.764531 
L 298.642969 438.764531 
L 313.642969 438.764531 
" style="fill: none; stroke: #0000ff; stroke-width: 4; stroke-linecap: square"/>
   </g>
   <g id="text_30">
    <!-- Train. original model -->
    <g transform="translate(325.642969 444.014531)scale(0.15 -0.15)">
     <defs>
      <path id="DejaVuSans-54" d="M -19 4666 
L 3928 4666 
L 3928 4134 
L 2272 4134 
L 2272 0 
L 1638 0 
L 1638 4134 
L -19 4134 
L -19 4666 
z
" transform="scale(0.015625)"/>
      <path id="DejaVuSans-67" d="M 2906 1791 
Q 2906 2416 2648 2759 
Q 2391 3103 1925 3103 
Q 1463 3103 1205 2759 
Q 947 2416 947 1791 
Q 947 1169 1205 825 
Q 1463 481 1925 481 
Q 2391 481 2648 825 
Q 2906 1169 2906 1791 
z
M 3481 434 
Q 3481 -459 3084 -895 
Q 2688 -1331 1869 -1331 
Q 1566 -1331 1297 -1286 
Q 1028 -1241 775 -1147 
L 775 -588 
Q 1028 -725 1275 -790 
Q 1522 -856 1778 -856 
Q 2344 -856 2625 -561 
Q 2906 -266 2906 331 
L 2906 616 
Q 2728 306 2450 153 
Q 2172 0 1784 0 
Q 1141 0 747 490 
Q 353 981 353 1791 
Q 353 2603 747 3093 
Q 1141 3584 1784 3584 
Q 2172 3584 2450 3431 
Q 2728 3278 2906 2969 
L 2906 3500 
L 3481 3500 
L 3481 434 
z
" transform="scale(0.015625)"/>
      <path id="DejaVuSans-64" d="M 2906 2969 
L 2906 4863 
L 3481 4863 
L 3481 0 
L 2906 0 
L 2906 525 
Q 2725 213 2448 61 
Q 2172 -91 1784 -91 
Q 1150 -91 751 415 
Q 353 922 353 1747 
Q 353 2572 751 3078 
Q 1150 3584 1784 3584 
Q 2172 3584 2448 3432 
Q 2725 3281 2906 2969 
z
M 947 1747 
Q 947 1113 1208 752 
Q 1469 391 1925 391 
Q 2381 391 2643 752 
Q 2906 1113 2906 1747 
Q 2906 2381 2643 2742 
Q 2381 3103 1925 3103 
Q 1469 3103 1208 2742 
Q 947 2381 947 1747 
z
" transform="scale(0.015625)"/>
     </defs>
     <use xlink:href="#DejaVuSans-54"/>
     <use xlink:href="#DejaVuSans-72" x="46.333984"/>
     <use xlink:href="#DejaVuSans-61" x="87.447266"/>
     <use xlink:href="#DejaVuSans-69" x="148.726562"/>
     <use xlink:href="#DejaVuSans-6e" x="176.509766"/>
     <use xlink:href="#DejaVuSans-2e" x="239.888672"/>
     <use xlink:href="#DejaVuSans-20" x="271.675781"/>
     <use xlink:href="#DejaVuSans-6f" x="303.462891"/>
     <use xlink:href="#DejaVuSans-72" x="364.644531"/>
     <use xlink:href="#DejaVuSans-69" x="405.757812"/>
     <use xlink:href="#DejaVuSans-67" x="433.541016"/>
     <use xlink:href="#DejaVuSans-69" x="497.017578"/>
     <use xlink:href="#DejaVuSans-6e" x="524.800781"/>
     <use xlink:href="#DejaVuSans-61" x="588.179688"/>
     <use xlink:href="#DejaVuSans-6c" x="649.458984"/>
     <use xlink:href="#DejaVuSans-20" x="677.242188"/>
     <use xlink:href="#DejaVuSans-6d" x="709.029297"/>
     <use xlink:href="#DejaVuSans-6f" x="806.441406"/>
     <use xlink:href="#DejaVuSans-64" x="867.623047"/>
     <use xlink:href="#DejaVuSans-65" x="931.099609"/>
     <use xlink:href="#DejaVuSans-6c" x="992.623047"/>
    </g>
   </g>
   <g id="line2d_76">
    <path d="M 283.642969 460.781719 
L 298.642969 460.781719 
L 313.642969 460.781719 
" style="fill: none; stroke-dasharray: 14.8,6.4; stroke-dashoffset: 0; stroke: #0000ff; stroke-width: 4"/>
   </g>
   <g id="text_31">
    <!-- Valid. original model -->
    <g transform="translate(325.642969 466.031719)scale(0.15 -0.15)">
     <defs>
      <path id="DejaVuSans-56" d="M 1831 0 
L 50 4666 
L 709 4666 
L 2188 738 
L 3669 4666 
L 4325 4666 
L 2547 0 
L 1831 0 
z
" transform="scale(0.015625)"/>
     </defs>
     <use xlink:href="#DejaVuSans-56"/>
     <use xlink:href="#DejaVuSans-61" x="60.658203"/>
     <use xlink:href="#DejaVuSans-6c" x="121.9375"/>
     <use xlink:href="#DejaVuSans-69" x="149.720703"/>
     <use xlink:href="#DejaVuSans-64" x="177.503906"/>
     <use xlink:href="#DejaVuSans-2e" x="240.980469"/>
     <use xlink:href="#DejaVuSans-20" x="272.767578"/>
     <use xlink:href="#DejaVuSans-6f" x="304.554688"/>
     <use xlink:href="#DejaVuSans-72" x="365.736328"/>
     <use xlink:href="#DejaVuSans-69" x="406.849609"/>
     <use xlink:href="#DejaVuSans-67" x="434.632812"/>
     <use xlink:href="#DejaVuSans-69" x="498.109375"/>
     <use xlink:href="#DejaVuSans-6e" x="525.892578"/>
     <use xlink:href="#DejaVuSans-61" x="589.271484"/>
     <use xlink:href="#DejaVuSans-6c" x="650.550781"/>
     <use xlink:href="#DejaVuSans-20" x="678.333984"/>
     <use xlink:href="#DejaVuSans-6d" x="710.121094"/>
     <use xlink:href="#DejaVuSans-6f" x="807.533203"/>
     <use xlink:href="#DejaVuSans-64" x="868.714844"/>
     <use xlink:href="#DejaVuSans-65" x="932.191406"/>
     <use xlink:href="#DejaVuSans-6c" x="993.714844"/>
    </g>
   </g>
   <g id="line2d_77">
    <path d="M 508.867969 438.764531 
L 523.867969 438.764531 
L 538.867969 438.764531 
" style="fill: none; stroke: #ff0000; stroke-width: 4; stroke-linecap: square"/>
   </g>
   <g id="text_32">
    <!-- Train. reduced model -->
    <g transform="translate(550.867969 444.014531)scale(0.15 -0.15)">
     <use xlink:href="#DejaVuSans-54"/>
     <use xlink:href="#DejaVuSans-72" x="46.333984"/>
     <use xlink:href="#DejaVuSans-61" x="87.447266"/>
     <use xlink:href="#DejaVuSans-69" x="148.726562"/>
     <use xlink:href="#DejaVuSans-6e" x="176.509766"/>
     <use xlink:href="#DejaVuSans-2e" x="239.888672"/>
     <use xlink:href="#DejaVuSans-20" x="271.675781"/>
     <use xlink:href="#DejaVuSans-72" x="303.462891"/>
     <use xlink:href="#DejaVuSans-65" x="342.326172"/>
     <use xlink:href="#DejaVuSans-64" x="403.849609"/>
     <use xlink:href="#DejaVuSans-75" x="467.326172"/>
     <use xlink:href="#DejaVuSans-63" x="530.705078"/>
     <use xlink:href="#DejaVuSans-65" x="585.685547"/>
     <use xlink:href="#DejaVuSans-64" x="647.208984"/>
     <use xlink:href="#DejaVuSans-20" x="710.685547"/>
     <use xlink:href="#DejaVuSans-6d" x="742.472656"/>
     <use xlink:href="#DejaVuSans-6f" x="839.884766"/>
     <use xlink:href="#DejaVuSans-64" x="901.066406"/>
     <use xlink:href="#DejaVuSans-65" x="964.542969"/>
     <use xlink:href="#DejaVuSans-6c" x="1026.066406"/>
    </g>
   </g>
   <g id="line2d_78">
    <path d="M 508.867969 460.781719 
L 523.867969 460.781719 
L 538.867969 460.781719 
" style="fill: none; stroke-dasharray: 14.8,6.4; stroke-dashoffset: 0; stroke: #ff0000; stroke-width: 4"/>
   </g>
   <g id="text_33">
    <!-- Valid. reduced model -->
    <g transform="translate(550.867969 466.031719)scale(0.15 -0.15)">
     <use xlink:href="#DejaVuSans-56"/>
     <use xlink:href="#DejaVuSans-61" x="60.658203"/>
     <use xlink:href="#DejaVuSans-6c" x="121.9375"/>
     <use xlink:href="#DejaVuSans-69" x="149.720703"/>
     <use xlink:href="#DejaVuSans-64" x="177.503906"/>
     <use xlink:href="#DejaVuSans-2e" x="240.980469"/>
     <use xlink:href="#DejaVuSans-20" x="272.767578"/>
     <use xlink:href="#DejaVuSans-72" x="304.554688"/>
     <use xlink:href="#DejaVuSans-65" x="343.417969"/>
     <use xlink:href="#DejaVuSans-64" x="404.941406"/>
     <use xlink:href="#DejaVuSans-75" x="468.417969"/>
     <use xlink:href="#DejaVuSans-63" x="531.796875"/>
     <use xlink:href="#DejaVuSans-65" x="586.777344"/>
     <use xlink:href="#DejaVuSans-64" x="648.300781"/>
     <use xlink:href="#DejaVuSans-20" x="711.777344"/>
     <use xlink:href="#DejaVuSans-6d" x="743.564453"/>
     <use xlink:href="#DejaVuSans-6f" x="840.976562"/>
     <use xlink:href="#DejaVuSans-64" x="902.158203"/>
     <use xlink:href="#DejaVuSans-65" x="965.634766"/>
     <use xlink:href="#DejaVuSans-6c" x="1027.158203"/>
    </g>
   </g>
   <g id="line2d_79">
    <path d="M 739.113281 438.764531 
L 754.113281 438.764531 
L 769.113281 438.764531 
" style="fill: none; stroke-dasharray: 4,6.6; stroke-dashoffset: 0; stroke: #000000; stroke-width: 4"/>
   </g>
   <g id="text_34">
    <!-- Con. reg. intro. -->
    <g transform="translate(781.113281 444.014531)scale(0.15 -0.15)">
     <defs>
      <path id="DejaVuSans-43" d="M 4122 4306 
L 4122 3641 
Q 3803 3938 3442 4084 
Q 3081 4231 2675 4231 
Q 1875 4231 1450 3742 
Q 1025 3253 1025 2328 
Q 1025 1406 1450 917 
Q 1875 428 2675 428 
Q 3081 428 3442 575 
Q 3803 722 4122 1019 
L 4122 359 
Q 3791 134 3420 21 
Q 3050 -91 2638 -91 
Q 1578 -91 968 557 
Q 359 1206 359 2328 
Q 359 3453 968 4101 
Q 1578 4750 2638 4750 
Q 3056 4750 3426 4639 
Q 3797 4528 4122 4306 
z
" transform="scale(0.015625)"/>
     </defs>
     <use xlink:href="#DejaVuSans-43"/>
     <use xlink:href="#DejaVuSans-6f" x="69.824219"/>
     <use xlink:href="#DejaVuSans-6e" x="131.005859"/>
     <use xlink:href="#DejaVuSans-2e" x="194.384766"/>
     <use xlink:href="#DejaVuSans-20" x="226.171875"/>
     <use xlink:href="#DejaVuSans-72" x="257.958984"/>
     <use xlink:href="#DejaVuSans-65" x="296.822266"/>
     <use xlink:href="#DejaVuSans-67" x="358.345703"/>
     <use xlink:href="#DejaVuSans-2e" x="421.822266"/>
     <use xlink:href="#DejaVuSans-20" x="453.609375"/>
     <use xlink:href="#DejaVuSans-69" x="485.396484"/>
     <use xlink:href="#DejaVuSans-6e" x="513.179688"/>
     <use xlink:href="#DejaVuSans-74" x="576.558594"/>
     <use xlink:href="#DejaVuSans-72" x="615.767578"/>
     <use xlink:href="#DejaVuSans-6f" x="654.630859"/>
     <use xlink:href="#DejaVuSans-2e" x="714.0625"/>
    </g>
   </g>
   <g id="line2d_80">
    <path d="M 739.113281 460.781719 
L 754.113281 460.781719 
L 769.113281 460.781719 
" style="fill: none; stroke-dasharray: 14.8,6.4; stroke-dashoffset: 0; stroke: #000000; stroke-width: 4"/>
   </g>
   <g id="text_35">
    <!-- Adv. cls. intro. -->
    <g transform="translate(781.113281 466.031719)scale(0.15 -0.15)">
     <defs>
      <path id="DejaVuSans-41" d="M 2188 4044 
L 1331 1722 
L 3047 1722 
L 2188 4044 
z
M 1831 4666 
L 2547 4666 
L 4325 0 
L 3669 0 
L 3244 1197 
L 1141 1197 
L 716 0 
L 50 0 
L 1831 4666 
z
" transform="scale(0.015625)"/>
     </defs>
     <use xlink:href="#DejaVuSans-41"/>
     <use xlink:href="#DejaVuSans-64" x="66.658203"/>
     <use xlink:href="#DejaVuSans-76" x="130.134766"/>
     <use xlink:href="#DejaVuSans-2e" x="181.564453"/>
     <use xlink:href="#DejaVuSans-20" x="213.351562"/>
     <use xlink:href="#DejaVuSans-63" x="245.138672"/>
     <use xlink:href="#DejaVuSans-6c" x="300.119141"/>
     <use xlink:href="#DejaVuSans-73" x="327.902344"/>
     <use xlink:href="#DejaVuSans-2e" x="380.001953"/>
     <use xlink:href="#DejaVuSans-20" x="411.789062"/>
     <use xlink:href="#DejaVuSans-69" x="443.576172"/>
     <use xlink:href="#DejaVuSans-6e" x="471.359375"/>
     <use xlink:href="#DejaVuSans-74" x="534.738281"/>
     <use xlink:href="#DejaVuSans-72" x="573.947266"/>
     <use xlink:href="#DejaVuSans-6f" x="612.810547"/>
     <use xlink:href="#DejaVuSans-2e" x="672.242188"/>
    </g>
   </g>
  </g>
 </g>
 <defs>
  <clipPath id="pc883fb734b">
   <rect x="33.2875" y="28.396875" width="525.035" height="346.6"/>
  </clipPath>
  <clipPath id="p1b02b997b4">
   <rect x="612.5725" y="28.396875" width="525.035" height="346.6"/>
  </clipPath>
 </defs>
</svg>
